<svg xmlns="http://www.w3.org/2000/svg" width="64" height="64" viewBox="0 0 64 64">
  <g id="Group_646" data-name="Group 646" transform="translate(-133)">
    <circle id="Ellipse_19" data-name="Ellipse 19" cx="32" cy="32" r="32" transform="translate(133)" fill="#e0e6ec"/>
    <path id="Vector" d="M23.313,18.206A10.163,10.163,0,0,0,22.92,1.89,10.266,10.266,0,0,0,7.288,6.859a10.16,10.16,0,0,0,3.348,11.347A17,17,0,0,0,.01,32.1,1.7,1.7,0,0,0,.378,33.36a1.72,1.72,0,0,0,3.049-.882A13.568,13.568,0,0,1,7.9,23.862a13.723,13.723,0,0,1,18.218,0,13.568,13.568,0,0,1,4.473,8.616,1.7,1.7,0,0,0,.562,1.082,1.714,1.714,0,0,0,1.146.43h.188a1.711,1.711,0,0,0,1.139-.627,1.693,1.693,0,0,0,.365-1.242A17,17,0,0,0,23.313,18.206ZM16.975,17a6.834,6.834,0,0,1-6.313-4.2A6.769,6.769,0,0,1,12.143,5.4a6.854,6.854,0,0,1,10.514,1.03,6.768,6.768,0,0,1-.85,8.581A6.853,6.853,0,0,1,16.975,17Z" transform="translate(148 15)" fill="#fff"/>
  </g>
</svg>
