<svg version="1.2" baseProfile="tiny-ps" xmlns="http://www.w3.org/2000/svg" viewBox="0 0 13 13" width="18" height="15">
	<title>checked-svg</title>
	<style>
		tspan { white-space:pre }
		.shp0 { fill: none;stroke: #383e4f;stroke-linecap:round;stroke-linejoin:round;stroke-width: 1.5 } 
		.shp1 { fill: none;stroke: #44ba46;stroke-linecap:round;stroke-linejoin:round;stroke-width: 1.5 } 
	</style>
	<g id="Icon_feather-copy">
		<path id="Path_193" class="shp0" d="M5.7 4.6L10.65 4.6C10.79 4.6 10.94 4.63 11.07 4.68C11.2 4.74 11.33 4.82 11.43 4.92C11.53 5.02 11.61 5.15 11.67 5.28C11.72 5.41 11.75 5.56 11.75 5.7L11.75 10.65C11.75 10.79 11.72 10.94 11.67 11.07C11.61 11.2 11.53 11.33 11.43 11.43C11.33 11.53 11.2 11.61 11.07 11.67C10.94 11.72 10.79 11.75 10.65 11.75L5.7 11.75C5.56 11.75 5.41 11.72 5.28 11.67C5.15 11.61 5.02 11.53 4.92 11.43C4.82 11.33 4.74 11.2 4.68 11.07C4.63 10.94 4.6 10.79 4.6 10.65L4.6 5.7C4.6 5.56 4.63 5.41 4.68 5.28C4.74 5.15 4.82 5.02 4.92 4.92C5.02 4.82 5.15 4.74 5.28 4.68C5.41 4.63 5.56 4.6 5.7 4.6L5.7 4.6Z" />
		<path id="Path_194" class="shp0" d="M2.4 7.9L1.85 7.9C1.71 7.9 1.56 7.87 1.43 7.82C1.3 7.76 1.17 7.68 1.07 7.58C0.97 7.48 0.89 7.35 0.83 7.22C0.78 7.09 0.75 6.94 0.75 6.8L0.75 1.85C0.75 1.71 0.78 1.56 0.83 1.43C0.89 1.3 0.97 1.17 1.07 1.07C1.17 0.97 1.3 0.89 1.43 0.83C1.56 0.78 1.71 0.75 1.85 0.75L6.8 0.75C6.94 0.75 7.09 0.78 7.22 0.83C7.35 0.89 7.48 0.97 7.58 1.07C7.68 1.17 7.76 1.3 7.82 1.43C7.87 1.56 7.9 1.71 7.9 1.85L7.9 2.4" />
	</g>
	<g id="Icon_feather-copy">
		<path id="Layer" class="shp1" d="M13.91 4.72L8.66 9.51L6.26 7.32" />
	</g>
</svg>