<svg id="Group_2222" data-name="Group 2222" xmlns="http://www.w3.org/2000/svg" width="58.388" height="43.791" viewBox="0 0 58.388 43.791">
  <path id="Path_709" data-name="Path 709" d="M73.731,68.866A4.866,4.866,0,1,1,68.866,64a4.865,4.865,0,0,1,4.865,4.866Zm0,0" transform="translate(-56.701 -56.701)" fill="#697180"/>
  <path id="Path_710" data-name="Path 710" d="M51.09,0H7.3A7.307,7.307,0,0,0,0,7.3V36.493c0,.136.034.265.041.4a1.8,1.8,0,0,0,.087.864A7.3,7.3,0,0,0,7.3,43.791H51.09a7.307,7.307,0,0,0,7.3-7.3V7.3A7.307,7.307,0,0,0,51.09,0ZM7.3,4.866H51.09A2.437,2.437,0,0,1,53.522,7.3V26.613l-12.8-12.8a4.27,4.27,0,0,0-6.033,0L23.112,25.4l-3.066-3.065a4.27,4.27,0,0,0-6.033,0L4.866,31.478V7.3A2.437,2.437,0,0,1,7.3,4.866Zm0,0" fill="#697180"/>
</svg>
