<svg width="235" height="45" viewBox="0 0 235 45" fill="none" xmlns="http://www.w3.org/2000/svg">
<path d="M10.7626 0.296387L0 11.9452C2.48414 11.9452 4.6879 11.9512 7.573 11.9512L1.36567 35.3151H12.4991L21.896 0.296387H10.7626Z" fill="#F16522"/>
<path d="M187.23 11.4575C176.835 11.4575 173.896 14.0227 171.906 21.3841C171.011 24.705 166.905 35.7156 181.502 35.7156C193.401 35.7156 195.731 32.8764 198.206 20.4147C199.762 12.6136 191.408 11.4575 187.23 11.4575ZM189.409 23.6633C188.089 28.4083 186.705 29.5555 182.867 29.5555C179.44 29.5555 178.406 27.6105 179.521 23.6724C180.86 18.9665 182.433 17.6266 186.093 17.6266C188.764 17.6296 190.748 18.8581 189.409 23.6633Z" fill="#44BA46"/>
<path d="M215.704 11.4575C205.306 11.4575 202.002 14.2334 200.383 21.3841C199.62 24.7442 195.376 35.7156 209.979 35.7156C221.878 35.7156 224.209 32.8764 226.684 20.4147C228.233 12.6136 219.879 11.4575 215.704 11.4575ZM217.884 23.6633C216.569 28.4083 215.176 29.5555 211.342 29.5555C207.911 29.5555 206.88 27.6105 207.998 23.6724C209.337 18.9665 210.654 17.6266 214.308 17.6266C216.982 17.6296 219.216 18.8581 217.884 23.6633Z" fill="#44BA46"/>
<path d="M34.7538 0.296387H47.1172L31.8084 15.3354C30.8136 16.3139 29.7373 17.8193 31.0276 19.8516L40.8556 35.3151H28.5917L20.7624 21.5045C18.7848 18.012 18.9416 15.9165 21.1966 13.6825L34.7538 0.296387Z" fill="#44BA46"/>
<path d="M145.904 11.9783H131.518L129.965 17.747H141.542C143.77 17.747 145.277 18.1836 144.466 20.7638H135.527C130.038 20.7638 128.057 22.2482 126.715 27.4629C125.374 32.6746 127.638 35.3151 131.28 35.3151H144.228C148.605 35.3151 149.841 30.8952 149.841 30.8952C149.841 30.8952 150.574 28.4444 152.763 20.0382C154.873 11.9572 145.904 11.9783 145.904 11.9783ZM137.825 29.8414C135.467 29.8414 133.746 29.6969 134.08 27.8182C134.376 26.1321 136.525 26.1412 138.214 26.1412H143.037C142.109 29.6126 141.068 29.8414 137.825 29.8414Z" fill="#44BA46"/>
<path d="M61.5336 11.9783H47.1473L45.5948 17.747H57.1623C59.3902 17.747 60.8975 18.1836 60.0866 20.7638H51.1539C45.6641 20.7638 43.6834 22.2482 42.3419 27.4629C41.0063 32.6746 43.2674 35.3151 46.9062 35.3151H59.8484C64.2258 35.3151 65.4618 30.8952 65.4618 30.8952C65.4618 30.8952 66.1914 28.4444 68.3861 20.0382C70.4964 11.9572 61.5336 11.9783 61.5336 11.9783ZM53.4511 29.8414C51.0966 29.8414 49.3813 29.6969 49.7099 27.8182C50.0053 26.1321 52.1548 26.1412 53.8401 26.1412H58.6666C57.7321 29.6126 56.698 29.8414 53.4511 29.8414Z" fill="#44BA46"/>
<path d="M75.8927 35.3152H67.8223L72.8147 16.8047C72.8147 16.8047 73.4628 12.433 78.2321 11.9603H91.0628C91.0628 11.9603 99.1182 11.9603 96.7727 21.0168L92.932 35.3182H84.8585L88.2622 22.6306C88.2622 22.6306 89.5464 18.0331 85.0635 18.0331H82.4648C82.4648 18.0331 80.5414 18.0331 80.0018 20.1075C79.5224 21.9441 75.8927 35.3152 75.8927 35.3152Z" fill="#44BA46"/>
<path d="M152.132 35.3151H160.209L163.29 23.6482C163.974 21.062 165.668 18.2167 171.113 18.2047C172.271 14.113 172.856 11.9573 172.856 11.9573H166.428C166.428 11.9573 158.481 11.6532 155.883 21.3359C152.973 32.1869 152.132 35.3151 152.132 35.3151Z" fill="#44BA46"/>
<path d="M119.537 11.9543C117.385 11.9543 110.831 11.9573 110.831 11.9573C105.341 11.9573 101.738 14.9922 100.231 20.6284C99.9776 21.5738 99.7635 22.3837 99.1033 24.8345C97.5085 30.7297 101.051 35.3152 106.302 35.3152H113.321C113.321 35.3152 112.917 38.7927 108.775 38.7927H97.4452L96.1428 44.2964H110.797C119.206 44.2964 121.391 35.3152 121.391 35.3152C121.391 35.3152 124.297 24.2113 126.04 17.7471C127.605 11.9573 122.573 11.9543 119.537 11.9543ZM117.038 21.4956C116.773 22.456 114.789 29.6639 114.789 29.6639H110.825C108.615 29.6639 105.591 29.6639 107.116 23.9042C108.497 18.6744 109.926 18.0421 113.321 18.0421C118.018 18.0421 117.303 20.5261 117.038 21.4956Z" fill="#44BA46"/>
<path d="M230.932 35.3061C229.885 35.3061 229.002 34.9087 228.282 34.159C227.552 33.3912 227.205 32.4639 227.205 31.3619C227.205 30.2359 227.552 29.2965 228.273 28.5558C228.99 27.7911 229.876 27.4268 230.941 27.4268C231.996 27.4268 232.873 27.8152 233.6 28.5799C234.311 29.3447 234.667 30.2539 234.667 31.3649C234.667 32.4488 234.308 33.3762 233.6 34.153C232.873 34.9087 231.996 35.3061 230.932 35.3061ZM227.814 31.3619C227.814 32.2682 228.113 33.051 228.701 33.6803C229.31 34.3276 230.051 34.6527 230.938 34.6527C231.794 34.6527 232.532 34.3366 233.129 33.7043C233.747 33.0811 234.049 32.2892 234.049 31.3589C234.049 30.5309 233.759 29.7572 233.184 29.0827C232.608 28.4083 231.854 28.0711 230.929 28.0711C230.066 28.0711 229.331 28.3812 228.722 29.0285C228.122 29.6729 227.814 30.4527 227.814 31.3619Z" fill="#44BA46"/>
<path d="M229.324 29.2423H231.13C231.435 29.2423 231.679 29.2845 231.872 29.3899C232.246 29.5645 232.412 29.8897 232.412 30.3834C232.412 30.6303 232.366 30.8501 232.276 31.0097C232.176 31.1602 232.026 31.2927 231.854 31.386C232.017 31.4673 232.128 31.5336 232.21 31.666C232.285 31.7503 232.333 31.9491 232.342 32.1959C232.342 32.1959 232.384 33.048 232.409 33.1173C232.442 33.2407 232.49 33.3461 232.574 33.3702V33.4725H231.905C231.89 33.4394 231.875 33.3882 231.872 33.322C231.854 33.2618 231.854 33.1504 231.848 32.9938L231.8 32.2772C231.781 32.0002 231.697 31.8256 231.531 31.7293C231.438 31.6811 231.26 31.666 231.058 31.666H229.864V33.4725H229.33V29.2423H229.324ZM231.061 31.1753C231.317 31.1753 231.51 31.1271 231.646 31.0217C231.797 30.9103 231.872 30.7207 231.872 30.4527C231.872 30.1366 231.766 29.9439 231.567 29.8264C231.456 29.7813 231.317 29.7331 231.139 29.7331H229.861V31.1723H231.061V31.1753Z" fill="#44BA46"/>
</svg>
