<svg xmlns="http://www.w3.org/2000/svg" width="22" height="22" viewBox="0 0 22 22">
  <path id="Vector" d="M11,2.75a8.25,8.25,0,1,0,3.157.628A8.25,8.25,0,0,0,11,2.75ZM5.819,14.663l1.452-5.5H5.5l2.508-2.75h2.607l-2.2,8.25ZM12.749,11l2.288,3.641h-2.86l-1.826-3.223c-.451-.825-.451-1.32.1-1.848l3.168-3.157H16.5L12.925,9.955A.781.781,0,0,0,12.749,11ZM11,0a11,11,0,1,0,7.778,3.222A11,11,0,0,0,11,0Zm0,20.625a9.625,9.625,0,1,1,6.806-2.819A9.626,9.626,0,0,1,11,20.625Z" fill="#44ba46" fill-rule="evenodd"/>
</svg>
