<svg id="Atoms_Graphic_Logo" data-name="Atoms/Graphic/Logo" xmlns="http://www.w3.org/2000/svg" width="159.998" height="30" viewBox="0 0 159.998 30">
  <path id="Vector" d="M7.338,0,0,7.942c1.694,0,3.2,0,5.163,0L.931,23.876H8.522L14.929,0Z" fill="#f16522"/>
  <g id="Group">
    <path id="Vector-2" data-name="Vector" d="M11.275,0C4.188,0,2.184,1.749.827,6.768.217,9.032-2.583,16.54,7.37,16.54c8.113,0,9.7-1.936,11.39-10.432C19.82.788,14.124,0,11.275,0Zm1.486,8.322c-.9,3.235-1.844,4.017-4.46,4.017-2.337,0-3.042-1.326-2.282-4.011C6.932,5.12,8.005,4.206,10.5,4.206,12.322,4.208,13.674,5.046,12.761,8.322Z" transform="translate(116.38 7.61)" fill="#fff"/>
    <path id="Vector-3" data-name="Vector" d="M11.235,0C4.146,0,1.893,1.893.789,6.768.269,9.059-2.625,16.54,7.332,16.54c8.113,0,9.7-1.936,11.389-10.432C19.778.788,14.082,0,11.235,0Zm1.486,8.322c-.9,3.235-1.846,4.017-4.46,4.017-2.339,0-3.042-1.326-2.28-4.011.913-3.209,1.811-4.122,4.3-4.122C12.107,4.208,13.63,5.046,12.721,8.322Z" transform="translate(135.832 7.61)" fill="#fff"/>
    <path id="Vector-4" data-name="Vector" d="M10.479,0h8.43L8.471,10.254a2.258,2.258,0,0,0-.532,3.079l6.7,10.543H6.278L.939,14.46c-1.348-2.381-1.242-3.81.3-5.333Z" transform="translate(13.215)" fill="#fff"/>
    <path id="Vector-5" data-name="Vector" d="M13.349,0H3.54L2.482,3.933h7.893c1.519,0,2.547.3,1.994,2.057H6.274C2.531,5.99,1.181,7,.266,10.558s.629,5.354,3.112,5.354h8.828c2.985,0,3.827-3.014,3.827-3.014s.5-1.671,1.992-7.4C19.464-.014,13.349,0,13.349,0ZM7.84,12.179c-1.607,0-2.781-.1-2.553-1.379.2-1.15,1.667-1.143,2.818-1.143h3.289C10.761,12.023,10.052,12.179,7.84,12.179Z" transform="translate(86.129 7.965)" fill="#fff"/>
    <path id="Vector-6" data-name="Vector" d="M13.35,0H3.541L2.482,3.933h7.887c1.519,0,2.547.3,1.994,2.057H6.272C2.529,5.99,1.179,7,.264,10.558S.9,15.911,3.376,15.911H12.2c2.985,0,3.827-3.014,3.827-3.014s.5-1.671,1.994-7.4C19.461-.014,13.35,0,13.35,0ZM7.839,12.179c-1.605,0-2.775-.1-2.551-1.379.2-1.15,1.667-1.143,2.816-1.143h3.291C10.758,12.023,10.053,12.179,7.839,12.179Z" transform="translate(28.602 7.965)" fill="#fff"/>
    <path id="Vector-7" data-name="Vector" d="M5.5,15.924H0L3.4,3.3A4.053,4.053,0,0,1,7.1,0h8.748s5.492,0,3.893,6.175L17.12,15.926h-5.5l2.321-8.651s.876-3.135-2.181-3.135H9.984A1.8,1.8,0,0,0,8.3,5.555C7.977,6.807,5.5,15.924,5.5,15.924Z" transform="translate(46.242 7.953)" fill="#fff"/>
    <path id="Vector-8" data-name="Vector" d="M0,15.927H5.507l2.1-7.955c.467-1.763,1.622-3.7,5.334-3.712C13.731,1.471,14.129,0,14.129,0H9.747S4.329-.207,2.557,6.4C.573,13.794,0,15.927,0,15.927Z" transform="translate(103.727 7.95)" fill="#fff"/>
    <path id="Vector-9" data-name="Vector" d="M15.951,0,10.014,0c-3.743,0-6.2,2.069-7.227,5.912-.173.645-.319,1.2-.769,2.868C.931,12.8,3.346,15.928,6.927,15.928h4.785a2.857,2.857,0,0,1-3.1,2.371H.888L0,22.051H9.992c5.733,0,7.223-6.124,7.223-6.124S19.2,8.357,20.384,3.95C21.451,0,18.021,0,15.951,0Zm-1.7,6.505c-.181.655-1.533,5.569-1.533,5.569h-2.7c-1.507,0-3.568,0-2.528-3.927.941-3.566,1.916-4,4.23-4C14.915,4.151,14.428,5.844,14.247,6.505Z" transform="translate(65.55 7.949)" fill="#fff"/>
    <path id="Vector-10" data-name="Vector" d="M2.541,5.372A2.423,2.423,0,0,1,.734,4.59,2.651,2.651,0,0,1,0,2.683,2.63,2.63,0,0,1,.728.77,2.38,2.38,0,0,1,2.547,0,2.4,2.4,0,0,1,4.36.786a2.665,2.665,0,0,1,.728,1.9,2.724,2.724,0,0,1-.728,1.9A2.426,2.426,0,0,1,2.541,5.372ZM.415,2.683a2.243,2.243,0,0,0,.6,1.581,2.01,2.01,0,0,0,1.525.663A1.984,1.984,0,0,0,4.039,4.28a2.185,2.185,0,0,0,.627-1.6,2.348,2.348,0,0,0-.59-1.552A1.927,1.927,0,0,0,2.539.439a1.982,1.982,0,0,0-1.5.653A2.258,2.258,0,0,0,.415,2.683Z" transform="translate(154.911 18.498)" fill="#fff"/>
    <path id="Vector-11" data-name="Vector" d="M0,0H1.231a1.047,1.047,0,0,1,.506.1A.663.663,0,0,1,2.1.778a.882.882,0,0,1-.092.427.811.811,0,0,1-.288.257.524.524,0,0,1,.243.191.643.643,0,0,1,.09.361s.029.581.045.628c.023.084.055.156.113.172v.07H1.76a.282.282,0,0,1-.023-.1,1.231,1.231,0,0,1-.016-.224l-.033-.489A.421.421,0,0,0,1.5,1.7a.822.822,0,0,0-.323-.043H.368V2.884H0V0ZM1.184,1.318a.637.637,0,0,0,.4-.1A.451.451,0,0,0,1.737.825.445.445,0,0,0,1.529.4.75.75,0,0,0,1.237.335H.366v.981h.818Z" transform="translate(156.356 19.736)" fill="#fff"/>
  </g>
</svg>
