<svg xmlns="http://www.w3.org/2000/svg" xmlns:xlink="http://www.w3.org/1999/xlink" width="38.421" height="60" viewBox="0 0 38.421 60">
  <defs>
    <clipPath id="clip-Shape_20">
      <rect width="38.421" height="60"/>
    </clipPath>
  </defs>
  <g id="Shape_20" data-name="Shape – 20" clip-path="url(#clip-Shape_20)">
    <g id="Group_35" data-name="Group 35" transform="translate(-260.758 -29.308)">
      <g id="Group_34" data-name="Group 34" transform="translate(260.758 29.308)">
        <path id="Path_53" data-name="Path 53" d="M300.043,71.233c.059-9.725-9.277-18.188-7.312-28.7-4.25,5.116-1.266,7.752-3.2,12.376a11.6,11.6,0,0,1-.8,1.548,7.164,7.164,0,0,0,.24-1.813c.072-7.274-9.321-16.37-2.96-24.463-10.024,5.358-9.2,15.185-11.91,23.9a24.1,24.1,0,0,1-2.037,4.831,7.906,7.906,0,0,0,.669-4.271c-.357-4.524-3.217-10.013-6.331-12.093,5.2,7.207-5.336,18.817-4.757,29.241.009.373.03.743.064,1.106a18.973,18.973,0,0,0,19.141,17.285c10.6,0,19.193-8.347,19.193-18.643C300.047,71.434,300.047,71.332,300.043,71.233Z" transform="translate(-261.626 -30.175)" fill="#f9c100"/>
      </g>
    </g>
  </g>
</svg>
