<svg xmlns="http://www.w3.org/2000/svg" xmlns:xlink="http://www.w3.org/1999/xlink" width="41.398" height="60" viewBox="0 0 41.398 60">
  <defs>
    <clipPath id="clip-Shape_19">
      <rect width="41.398" height="60"/>
    </clipPath>
  </defs>
  <g id="Shape_19" data-name="Shape – 19" clip-path="url(#clip-Shape_19)">
    <g id="Group_32" data-name="Group 32" transform="translate(-32.816 -38.895)">
      <g id="Group_31" data-name="Group 31" transform="translate(32.816 38.895)">
        <path id="Path_50" data-name="Path 50" d="M54.273,99.651a20.565,20.565,0,0,1-20.7-20.38,20.291,20.291,0,0,1,6.7-15.006,4.758,4.758,0,0,1,.854-.725c.112-.068.2-.119.285-.164a1.044,1.044,0,0,1,1.24.2,1,1,0,0,1,.121,1.232,4.6,4.6,0,0,0-.351,3.9,6.264,6.264,0,0,0,.746,1.533,14.794,14.794,0,0,1-.28-3.557,11.831,11.831,0,0,1,1.393-5.047,32.8,32.8,0,0,1,3.439-5.03l.605-.78c2.248-2.906,4.573-5.912,5.266-9.381a8.108,8.108,0,0,0-.7-5.32,1.006,1.006,0,0,1,.244-1.222,1.043,1.043,0,0,1,1.262-.072c7.417,5.011,5.6,13.02,4.275,18.868-.129.568-.254,1.118-.366,1.647a18.507,18.507,0,0,0-.429,2.778,4.572,4.572,0,0,0,2.316,4.343,12.057,12.057,0,0,1-.914-2.592,9.96,9.96,0,0,1-.035-4.262,9.014,9.014,0,0,1,4.846-6.256,1.045,1.045,0,0,1,1.17.17,1,1,0,0,1,.239,1.141,4.783,4.783,0,0,0-.321,2.809l.016.093a8.133,8.133,0,0,0,.652,1.984,8.443,8.443,0,0,0,2.316,3.192l.072.072A20.591,20.591,0,0,1,54.273,99.651Z" transform="translate(-33.572 -39.651)" fill="#f9c100"/>
      </g>
    </g>
  </g>
</svg>
