<svg xmlns="http://www.w3.org/2000/svg" xmlns:xlink="http://www.w3.org/1999/xlink" width="60" height="60" viewBox="0 0 60 60">
  <defs>
    <clipPath id="clip-Shape_18">
      <rect width="60" height="60"/>
    </clipPath>
  </defs>
  <g id="Shape_18" data-name="Shape – 18" clip-path="url(#clip-Shape_18)">
    <g id="Group_18" data-name="Group 18" transform="translate(-344.879 -171.163)">
      <path id="Path_37" data-name="Path 37" d="M404.879,201.163l-4.325,2.9,3.579,3.78-4.861,1.86,2.641,4.485-5.154.725,1.575,4.961-5.187-.438.437,5.186-4.961-1.575L387.9,228.2l-4.485-2.641-1.86,4.861-3.78-3.579-2.9,4.325-2.9-4.325-3.78,3.579-1.86-4.861-4.485,2.641-.725-5.154-4.961,1.575.438-5.187-5.187.437L353,214.908l-5.154-.725,2.641-4.485-4.861-1.86,3.579-3.78-4.325-2.9,4.325-2.9-3.579-3.78,4.861-1.86-2.641-4.485,5.154-.725-1.575-4.961,5.187.438-.437-5.187,4.961,1.575.725-5.154,4.485,2.641,1.86-4.861,3.78,3.579,2.9-4.325,2.9,4.325,3.78-3.579,1.86,4.861,4.485-2.641.725,5.154,4.961-1.575-.438,5.186,5.186-.437-1.575,4.961,5.154.725-2.641,4.485,4.861,1.86-3.579,3.78Z" transform="translate(0)" fill="#f9c100"/>
    </g>
  </g>
</svg>
