<svg id="Gold" xmlns="http://www.w3.org/2000/svg" width="14.983" height="20.689" viewBox="0 0 14.983 20.689">
  <g id="Group_2" data-name="Group 2" transform="translate(0 0)">
    <path id="Path_1" data-name="Path 1" d="M100.693,357.144l-3.1-1.034-.909-.005-1.59,4.569a.21.21,0,0,0,.221.278l2.229-.233a.21.21,0,0,1,.169.059l1.6,1.567a.21.21,0,0,0,.346-.081l1.6-4.6Z" transform="translate(-94.073 -341.715)" fill="#ff4755"/>
    <path id="Path_2" data-name="Path 2" d="M139.307,335.664l.323-.929-4.578-1.557-.322.926A8.4,8.4,0,0,0,139.307,335.664Z" transform="translate(-132.13 -319.715)" fill="#fc2b3a"/>
    <path id="Path_3" data-name="Path 3" d="M264.573,357.144l3.1-1.034.909-.005,1.59,4.569a.21.21,0,0,1-.221.278l-2.229-.233a.21.21,0,0,0-.169.059l-1.6,1.567a.21.21,0,0,1-.346-.081l-1.6-4.6Z" transform="translate(-256.209 -341.715)" fill="#ff4755"/>
    <path id="Path_4" data-name="Path 4" d="M256.323,335.664l-.323-.929,4.578-1.557.322.926A8.4,8.4,0,0,1,256.323,335.664Z" transform="translate(-248.517 -319.715)" fill="#fc2b3a"/>
    <path id="Path_5" data-name="Path 5" d="M77.854,14.39c-7.482,0-7.488-7.133-7.482-7.258a7.491,7.491,0,0,1,14.965,0C85.343,7.257,85.337,14.39,77.854,14.39Z" transform="translate(-70.363 0)" fill="#ffe27a"/>
    <path id="Path_6" data-name="Path 6" d="M77.64,183.616a7.5,7.5,0,0,1-7.482-7.131q-.009.188-.009.378a7.492,7.492,0,1,0,14.983,0q0-.19-.009-.378A7.5,7.5,0,0,1,77.64,183.616Z" transform="translate(-70.148 -169.354)" fill="#f9cf58"/>
    <path id="Path_7" data-name="Path 7" d="M121.384,45.356a6.115,6.115,0,0,1-5.9,5.553,6.25,6.25,0,0,1-5.9-5.553q0-.191.012-.379a5.9,5.9,0,0,1,11.772,0Q121.384,45.166,121.384,45.356Z" transform="translate(-107.994 -37.846)" fill="#ffba57"/>
    <path id="Path_8" data-name="Path 8" d="M115.486,182.023a5.906,5.906,0,0,1-5.886-5.538c-.008.125-.012.251-.012.379a5.9,5.9,0,1,0,11.8,0c0-.127,0-.253-.012-.379A5.906,5.906,0,0,1,115.486,182.023Z" transform="translate(-107.994 -169.354)" fill="#ffac3e"/>
  </g>
</svg>
