<svg xmlns="http://www.w3.org/2000/svg" width="70" height="70" viewBox="0 0 70 70">
  <g id="download_-_2021-12-20T161236.672" data-name="download - 2021-12-20T161236.672" transform="translate(0 -0.002)">
    <g id="Group_1990" data-name="Group 1990" transform="translate(0 0.002)">
      <path id="Path_694" data-name="Path 694" d="M.538,10.734a2.051,2.051,0,0,1,3.444-.969l7.555,7.559h5.8v-5.8L9.8,3.979a2.053,2.053,0,0,1,.96-3.442A14.639,14.639,0,0,1,24.589,4.267,14.354,14.354,0,0,1,27.922,19.2L51.01,42.292a14.354,14.354,0,0,1,14.936,3.333,14.864,14.864,0,0,1,3.747,13.838,2.051,2.051,0,0,1-3.444.969l-7.555-7.559h-5.8v5.8l7.543,7.539a2.053,2.053,0,0,1-.961,3.442,14.636,14.636,0,0,1-13.83-3.729,14.354,14.354,0,0,1-3.333-14.936L19.221,27.905A14.354,14.354,0,0,1,4.285,24.572,14.864,14.864,0,0,1,.538,10.734Z" transform="translate(-0.118 -0.096)" fill="#f16522"/>
      <g id="Group_1989" data-name="Group 1989" transform="translate(0 0)">
        <path id="Path_695" data-name="Path 695" d="M34.884,270.457,17.444,287.9A10.237,10.237,0,0,1,4.58,289.2l15.756-15.754a2.045,2.045,0,0,0-2.892-2.892L1.69,286.305a10.235,10.235,0,0,1,1.3-12.864L20.429,256Z" transform="translate(0 -220.885)" fill="#fff"/>
        <path id="Path_696" data-name="Path 696" d="M327.289,5.851l-5.782,11.564a2.044,2.044,0,0,1-1.54,1.111l-9.443,1.348-9.235,9.235L298.4,26.217l9.233-9.233,1.349-9.444A2.044,2.044,0,0,1,310.091,6L321.655.217A2.046,2.046,0,0,1,324.014.6l2.892,2.892a2.046,2.046,0,0,1,.383,2.359Z" transform="translate(-257.504 -0.002)" fill="#fff"/>
      </g>
    </g>
  </g>
</svg>
