<svg id="Group_2135" data-name="Group 2135" xmlns="http://www.w3.org/2000/svg" width="26" height="26" viewBox="0 0 26 26">
  <g id="Group_728" data-name="Group 728">
    <g id="Group_727" data-name="Group 727">
      <g id="filled_outline_8_">
        <path id="Path_635" data-name="Path 635" d="M461.916,75.8l-4.658-4.667v18.7h6.234V79.586A5.343,5.343,0,0,0,461.916,75.8Z" transform="translate(-437.937 -68.013)" fill="#ffb782"/>
        <path id="Path_636" data-name="Path 636" d="M13.688,28.133l-3.415-9.142a1.8,1.8,0,0,1,.991-2.3l16.118-6.4a1.711,1.711,0,0,1,2.232,1.022l3.415,9.142a1.8,1.8,0,0,1-.991,2.3l-16.118,6.4A1.712,1.712,0,0,1,13.688,28.133Z" transform="translate(-9.712 -9.722)" fill="#de4c3c"/>
        <path id="Path_637" data-name="Path 637" d="M61.467,111.368,42.21,119.093l1.282,3.445,19.258-7.721Z" transform="translate(-40.36 -106.713)" fill="#7a4930"/>
        <path id="Path_638" data-name="Path 638" d="M10.161,21.738v-9.8a1.781,1.781,0,0,1,1.781-1.781H29.753a1.781,1.781,0,0,1,1.781,1.781v9.8a1.781,1.781,0,0,1-1.781,1.781H11.942A1.781,1.781,0,0,1,10.161,21.738Z" transform="translate(-9.716 -9.716)" fill="#4398d1"/>
        <path id="Path_639" data-name="Path 639" d="M123.843,10.161H122.03l-12.8,13.358h14.609a1.745,1.745,0,0,0,1.706-1.781v-9.8A1.745,1.745,0,0,0,123.843,10.161Z" transform="translate(-104.447 -9.716)" fill="#3e8cc7"/>
        <rect id="Rectangle_1076" data-name="Rectangle 1076" width="1.781" height="0.891" transform="translate(2.226 7.36)" fill="#5eb3d1"/>
        <rect id="Rectangle_1077" data-name="Rectangle 1077" width="1.781" height="0.891" transform="translate(2.226 9.957)" fill="#5eb3d1"/>
        <rect id="Rectangle_1078" data-name="Rectangle 1078" width="1.781" height="0.891" transform="translate(9.947 9.957)" fill="#5eb3d1"/>
        <rect id="Rectangle_1079" data-name="Rectangle 1079" width="1.781" height="0.891" transform="translate(4.757 7.36)" fill="#5eb3d1"/>
        <rect id="Rectangle_1080" data-name="Rectangle 1080" width="1.781" height="0.891" transform="translate(7.352 7.36)" fill="#5eb3d1"/>
        <rect id="Rectangle_1081" data-name="Rectangle 1081" width="1.781" height="0.891" transform="translate(9.947 7.36)" fill="#5eb3d1"/>
        <rect id="Rectangle_1082" data-name="Rectangle 1082" width="0.891" height="1.336" transform="translate(18.183 2.226)" fill="#5eb3d1"/>
        <rect id="Rectangle_1083" data-name="Rectangle 1083" width="0.891" height="1.336" transform="translate(16.451 2.226)" fill="#5eb3d1"/>
        <rect id="Rectangle_1084" data-name="Rectangle 1084" width="0.891" height="1.336" transform="translate(14.719 2.226)" fill="#5eb3d1"/>
        <rect id="Rectangle_1085" data-name="Rectangle 1085" width="0.891" height="1.336" transform="translate(12.988 2.226)" fill="#5eb3d1"/>
        <rect id="Rectangle_1086" data-name="Rectangle 1086" width="8.015" height="4.453" transform="translate(17.54 21.102)" fill="#88b337"/>
        <path id="Path_640" data-name="Path 640" d="M314.939,181.441a1.93,1.93,0,0,0-2.788,2.669l3.649,3.981a6.005,6.005,0,0,0,.122,6.161l.324.518h5.789v-6.234Z" transform="translate(-298.706 -173.395)" fill="#ffb782"/>
        <rect id="Rectangle_1087" data-name="Rectangle 1087" width="0.891" height="0.891" transform="translate(19.049 22.438)" fill="#6b962a"/>
        <path id="Path_641" data-name="Path 641" d="M50.806,53.657V51.519a.712.712,0,0,1,.712-.712h2.137a.712.712,0,0,1,.712.712v2.137a.712.712,0,0,1-.712.712H51.518A.712.712,0,0,1,50.806,53.657Z" transform="translate(-48.58 -48.581)" fill="#fdb62f"/>
        <rect id="Rectangle_1088" data-name="Rectangle 1088" width="1.336" height="0.891" transform="translate(2.226 3.562)" fill="#fd7b2f"/>
        <rect id="Rectangle_1089" data-name="Rectangle 1089" width="1.336" height="0.891" transform="translate(4.327 3.562)" fill="#fd7b2f"/>
        <path id="Path_642" data-name="Path 642" d="M490.086,297.471a.444.444,0,0,1-.315-.13l-1.781-1.781a.445.445,0,0,1,.63-.63l1.781,1.781a.445.445,0,0,1-.315.76Z" transform="translate(-467.203 -282.271)" fill="#f2a46f"/>
        <path id="Path_643" data-name="Path 643" d="M21.667,4.591V2.167A2.169,2.169,0,0,0,19.5,0H2.167A2.169,2.169,0,0,0,0,2.167V11.7a2.162,2.162,0,0,0,1.943,2.144l1.629,4.228a2.166,2.166,0,0,0,2.8,1.243L16.545,15.4a6.263,6.263,0,0,0,.54,5.562l.249.4v4.209a.433.433,0,0,0,.433.433h7.8A.433.433,0,0,0,26,25.567v-14.3a5.67,5.67,0,0,0-1.66-3.994Zm0,2.591L22.982,10.6a1.3,1.3,0,0,1-.746,1.68l-.752.29a2.161,2.161,0,0,0,.183-.867ZM.867,11.7V2.167a1.3,1.3,0,0,1,1.3-1.3H19.5a1.3,1.3,0,0,1,1.3,1.3V4.921h0l0,.01V11.7a1.3,1.3,0,0,1-.029.224L16.8,7.955a2.312,2.312,0,0,0-3.337,3.2L15.157,13H2.167a1.3,1.3,0,0,1-1.3-1.3Zm5.551,2.167L3.337,15.053l-.456-1.186Zm-.357,4.64a1.3,1.3,0,0,1-1.68-.746h0l-.731-1.9,5.173-1.993v0h7.129l.563.614Zm19.072,6.627H18.2V21.667h6.933Zm0-4.333H18.007l-.188-.3a5.4,5.4,0,0,1-.11-5.55.433.433,0,0,0-.057-.508L14.1,10.568a1.445,1.445,0,0,1,2.087-2l6.905,6.9.613-.613-1.6-1.6.445-.173a2.166,2.166,0,0,0,1.242-2.8L22.323,6.476l1.4,1.407a4.8,4.8,0,0,1,1.406,3.38V20.8Z"/>
        <path id="Path_644" data-name="Path 644" d="M43.941,45.1A1.158,1.158,0,0,0,45.1,43.941h0V41.8a1.158,1.158,0,0,0-1.158-1.158H41.8A1.158,1.158,0,0,0,40.646,41.8h0v2.137A1.158,1.158,0,0,0,41.8,45.1h2.137Zm-2.4-1.158v-.623h.891v-.891h-.891V41.8a.267.267,0,0,1,.267-.267h2.137a.267.267,0,0,1,.267.267h0v.623h-.891v.891h.891v.623a.267.267,0,0,1-.267.267H41.8a.267.267,0,0,1-.267-.267Z" transform="translate(-38.865 -38.865)"/>
        <rect id="Rectangle_1090" data-name="Rectangle 1090" width="1.781" height="0.891" transform="translate(2.226 7.36)"/>
        <rect id="Rectangle_1091" data-name="Rectangle 1091" width="1.781" height="0.891" transform="translate(2.226 9.957)"/>
        <rect id="Rectangle_1092" data-name="Rectangle 1092" width="1.781" height="0.891" transform="translate(9.947 9.957)"/>
        <rect id="Rectangle_1093" data-name="Rectangle 1093" width="1.781" height="0.891" transform="translate(4.757 7.36)"/>
        <rect id="Rectangle_1094" data-name="Rectangle 1094" width="1.781" height="0.891" transform="translate(7.352 7.36)"/>
        <rect id="Rectangle_1095" data-name="Rectangle 1095" width="1.781" height="0.891" transform="translate(9.947 7.36)"/>
        <rect id="Rectangle_1096" data-name="Rectangle 1096" width="0.891" height="1.336" transform="translate(18.183 2.226)"/>
        <rect id="Rectangle_1097" data-name="Rectangle 1097" width="0.891" height="1.336" transform="translate(16.451 2.226)"/>
        <rect id="Rectangle_1098" data-name="Rectangle 1098" width="0.891" height="1.336" transform="translate(14.719 2.226)"/>
        <rect id="Rectangle_1099" data-name="Rectangle 1099" width="0.891" height="1.336" transform="translate(12.988 2.226)"/>
        <rect id="Rectangle_1100" data-name="Rectangle 1100" width="0.891" height="0.891" transform="translate(19.049 22.438)"/>
      </g>
    </g>
  </g>
</svg>
