<svg xmlns="http://www.w3.org/2000/svg" width="30" height="28.999" viewBox="0 0 30 28.999">
  <g id="Group_2138" data-name="Group 2138" transform="translate(-1.824 -6)">
    <path id="Path_645" data-name="Path 645" d="M22,13V25.288a.918.918,0,0,0,.051.317,1.028,1.028,0,0,0,.973.707H39.408a1.028,1.028,0,0,0,.988-.758.9.9,0,0,0,.036-.266V13Z" transform="translate(-10.361 -3.416)" fill="#ffb655"/>
    <path id="Path_646" data-name="Path 646" d="M30.524,39.537h.005l3.461-1.26h1.695a1.028,1.028,0,0,0,.988-.758,1.536,1.536,0,0,1,.266,2.954L26.458,44.289a6.125,6.125,0,0,1-3.169.276l-.916-.159a5.1,5.1,0,0,0-3.825.85l-.358.251-3.82-5.453L16.4,38.636a10.274,10.274,0,0,1,1.93-1.065,1.028,1.028,0,0,0,.973.707H30.114a1.622,1.622,0,0,1,.148.179,1.4,1.4,0,0,1,.246.614,1.188,1.188,0,0,1,.015.466Z" transform="translate(-6.638 -15.382)" fill="#ffc477"/>
    <path id="Path_647" data-name="Path 647" d="M51.168,8.024v2.048H44V7h6.144A1.027,1.027,0,0,1,51.168,8.024Z" transform="translate(-21.097 -0.488)" fill="#ff9811"/>
    <path id="Path_648" data-name="Path 648" d="M54.59,37.564a1.526,1.526,0,0,1,.783-.067,1.028,1.028,0,0,1-.988.758H52.69Z" transform="translate(-25.338 -15.359)" fill="#ffc477"/>
    <path id="Path_649" data-name="Path 649" d="M49,39l-3.461,1.26H45.53a1.188,1.188,0,0,0-.015-.466,1.4,1.4,0,0,0-.246-.614A1.62,1.62,0,0,0,45.12,39Z" transform="translate(-21.644 -16.104)" fill="#ffa733"/>
    <path id="Path_650" data-name="Path 650" d="M33.886,37.554H23.073a1.028,1.028,0,0,1-.973-.707c.312-.128.63-.246.952-.343l.077-.02a10.227,10.227,0,0,1,4.767-.292l5.146.906A1.522,1.522,0,0,1,33.886,37.554Z" transform="translate(-10.18 -14.658)" fill="#ffc477"/>
    <path id="Path_651" data-name="Path 651" d="M29.168,7v3.072H22V8.024A1.027,1.027,0,0,1,23.024,7Z" transform="translate(-10.074 -0.488)" fill="#ff9811"/>
    <path id="Path_652" data-name="Path 652" d="M12.553,46.722l.589.84L8.109,51.085,2.82,43.533,7.853,40.01l.881,1.26Z" transform="translate(-0.486 -16.597)" fill="#3d9ae2"/>
    <path id="Path_653" data-name="Path 653" d="M40.1,10.072v3.072L38.048,11.1,36,13.144V7h4.1Z" transform="translate(-17.019 -0.488)" fill="#e6e7e8"/>
    <path id="Path_654" data-name="Path 654" d="M31.7,22.947a2.018,2.018,0,0,0-1.1-1.173V7.536A1.528,1.528,0,0,0,29.094,6H12.986a1.528,1.528,0,0,0-1.51,1.536V21.888a10.157,10.157,0,0,0-1.631.947L8.265,23.961l-.579-.84a.5.5,0,0,0-.7-.128L2.038,26.516a.526.526,0,0,0-.126.717l5.2,7.547a.5.5,0,0,0,.7.128l4.948-3.523a.528.528,0,0,0,.126-.717l-.287-.415a4.419,4.419,0,0,1,3.322-.722l.9.154a6.439,6.439,0,0,0,3.378-.3l10.3-3.814a2.058,2.058,0,0,0,1.2-2.627ZM23.557,7.024h5.537a.508.508,0,0,1,.5.512V9.072h-6.04Zm-4.027,0h3.02v4.4L21.4,10.245a.5.5,0,0,0-.715,0L19.53,11.422Zm-7.047.512a.508.508,0,0,1,.5-.512h5.537V9.072h-6.04Zm0,2.56h6.04v2.56a.505.505,0,0,0,.312.471.5.5,0,0,0,.549-.108l1.656-1.69L22.7,13.02a.5.5,0,0,0,.357.148.416.416,0,0,0,.191-.041.505.505,0,0,0,.312-.471V10.1H29.6V21.621a1.908,1.908,0,0,0-.473.1l-1.782.66H23.8a1.935,1.935,0,0,0-.931-.445l-5.059-.906a10.4,10.4,0,0,0-4.9.3l-.091.031c-.116.031-.227.077-.337.118ZM7.646,33.776,3.03,27.064l4.123-2.939,4.616,6.712Zm23.159-9.948a1.02,1.02,0,0,1-.649.783l-10.3,3.814a5.443,5.443,0,0,1-2.859.251l-.9-.154a5.4,5.4,0,0,0-4.072.891L8.844,24.8l1.581-1.121A9.3,9.3,0,0,1,13.1,22.343l.091-.026a9.529,9.529,0,0,1,4.455-.282l5.054.906a1.029,1.029,0,0,1,.654.425,1.041,1.041,0,0,1,.166.44.92.92,0,0,1-.025.43,1.01,1.01,0,0,1-1.153.727L16.9,23.987l-.171,1,5.436.978A1.693,1.693,0,0,0,22.52,26a2.027,2.027,0,0,0,1.933-1.459l5.013-1.859a1,1,0,0,1,1.289.614.988.988,0,0,1,.05.527Z" transform="translate(0)"/>
  </g>
</svg>
